<svg xmlns="http://www.w3.org/2000/svg" viewBox="0 0 428.36 450.75"><defs><style>.cls-1{isolation:isolate;}.cls-2{fill:#e1eeef;}.cls-3{fill:#eed0ab;}.cls-4{opacity:0.6;}.cls-11,.cls-14,.cls-18,.cls-4,.cls-5{mix-blend-mode:multiply;}.cls-5,.cls-6{opacity:0.3;}.cls-12,.cls-16,.cls-6,.cls-9{mix-blend-mode:screen;}.cls-7{fill:#b52e2e;}.cls-11,.cls-12,.cls-8{fill:#82bada;}.cls-11,.cls-12,.cls-14,.cls-9{opacity:0.5;}.cls-10{fill:#259b93;}.cls-13{fill:#4c7fbc;}.cls-15{fill:#e2e282;}.cls-17{fill:#fff;}.cls-19{fill:#303033;}.cls-20{fill:#535359;}.cls-21{fill:#bcbebf;}.cls-22{fill:#88898c;}.cls-23{fill:#d1d2d4;}.cls-24{fill:#e7e7e8;}.cls-25{fill:#952921;}.cls-26{fill:#c23234;}.cls-27{fill:#c44651;}.cls-28{fill:#939597;}.cls-29{fill:#f5f5f5;}</style></defs><title>Primeros pasos- ícono provisorio </title><g class="cls-1"><g id="Capa_1" data-name="Capa 1"><circle class="cls-2" cx="216.02" cy="226.26" r="200.36"/><path class="cls-3" d="M211.22,203.29s5.77-5.85,4.29-8.63-12.15-11.83-13.69-11.92l-1.54-.09S188.09,183.8,187,186.1s3.48,7.36,11.77,5.8c0,0,4.36,4.9,5.64,5.62,0,0-7,4.83-8.73,11.37C194,215.08,211.22,203.29,211.22,203.29Z"/><g class="cls-4"><path class="cls-3" d="M211.22,203.29s5.77-5.85,4.29-8.63-12.15-11.83-13.69-11.92l-1.54-.09S188.09,183.8,187,186.1s3.48,7.36,11.77,5.8c0,0,4.36,4.9,5.64,5.62,0,0-7,4.83-8.73,11.37C194,215.08,211.22,203.29,211.22,203.29Z"/></g><path class="cls-3" d="M217.36,201.25s6.75-4.69,5.81-7.69-9.75-13.87-11.25-14.25l-1.5-.37s-12.19-1.13-13.69.93,2.06,7.88,10.5,7.88c0,0,3.38,5.62,4.5,6.56,0,0-7.75,3.46-10.69,9.56C198.26,209.65,217.36,201.25,217.36,201.25Z"/><g class="cls-5"><path class="cls-3" d="M217.36,201.25s6.75-4.69,5.81-7.69-9.75-13.87-11.25-14.25l-1.5-.37s-12.19-1.13-13.69.93,2.06,7.88,10.5,7.88c0,0,3.38,5.62,4.5,6.56,0,0-7.75,3.46-10.69,9.56C198.26,209.65,217.36,201.25,217.36,201.25Z"/></g><path class="cls-3" d="M126.46,233.47l-6.07-29.39s16-2.88,21.72-8.31,15.66-10.86,23.32-13.41l7.67-2.56s16-7.35,21.72-11.5,8.31,1.28,4.8,8.31-19.81,14-19.17,19.48,8.94,7.35,13.42,8,20.64-3.08,24.15-3.4c0,0,16.06-22.28,21.21-20.56,4.21,1.4,3.83,3.83,1.92,7.67l-1.92,3.83S228.05,211.11,222,214l-6.07,2.88s-20.77,9.26-29.71,9.26-28.75-3.19-35.46-1L144,227.4Z"/><g class="cls-6"><path class="cls-3" d="M193.87,204.08c-4.16-.59-11.6-2.29-13.16-6.88a3.2,3.2,0,0,0-.26,1.52c.64,5.43,8.94,7.35,13.42,8s20.64-3.07,24.15-3.39c0,0,16.58-24.7,21.73-23,1.73.58,2.57.81-.52-.22C234.08,178.4,218,200.68,218,200.68,214.51,201,198.34,204.72,193.87,204.08Z"/><path class="cls-3" d="M201.18,171.32v0c0-.28,0-.55,0-.81a4.23,4.23,0,0,0-.1,1.67h0A7.92,7.92,0,0,0,201.18,171.32Z"/><path class="cls-3" d="M200.86,168.67a5.59,5.59,0,0,1,.34,1.79h0A5.27,5.27,0,0,0,200.86,168.67Z"/><path class="cls-3" d="M200.08,167.5a2.59,2.59,0,0,1,.41.46A2.59,2.59,0,0,0,200.08,167.5Z"/><path class="cls-3" d="M199.67,167.19h0l.19.1Z"/><path class="cls-3" d="M200.8,168.52c-.06-.14-.13-.27-.2-.4C200.67,168.25,200.74,168.38,200.8,168.52Z"/><path class="cls-3" d="M142.11,198.4c5.75-5.43,15.66-10.86,23.32-13.41l7.67-2.56s19.09-10.37,26.57-15.23l-.06,0a1.38,1.38,0,0,0-.3-.14l-.25-.08-.4-.07-.23,0a4.2,4.2,0,0,0-.69.06l-.18,0-.62.18-.27.11c-.21.09-.41.18-.63.3l-.27.14a10.7,10.7,0,0,0-1,.61c-5.75,4.15-21.72,11.5-21.72,11.5l-7.67,2.56c-7.66,2.55-17.57,8-23.32,13.41s-21.72,8.31-21.72,8.31l.52,2.53C123.63,206.08,137,203.27,142.11,198.4Z"/></g><g class="cls-5"><path class="cls-3" d="M181.26,198.34a5.48,5.48,0,0,1-.81-2.25c-.64-5.43,15.65-12.46,19.17-19.48,1.53-3.08,1.91-5.85,1.36-7.64a16.1,16.1,0,0,1-1.36,3.78c-3.51,7-21.06,16.43-20.42,21.86A6,6,0,0,0,181.26,198.34Z"/><path class="cls-3" d="M242.15,182.1c-4.57,6.35-17.34,23.66-22.28,26L213.8,211s-20.76,9.27-29.71,9.27-28.75-3.2-35.46-1l-6.71,2.24-16.73,5.78,1.27,6.17L144,227.4l6.71-2.24c6.71-2.23,26.51,1,35.46,1s29.71-9.26,29.71-9.26L222,214c6.07-2.87,17.25-22.36,17.25-22.36l1.92-3.83C242.36,185.36,242.94,183.5,242.15,182.1Z"/></g><path class="cls-7" d="M241.28,180.32c0,.93-1.15.5-2.58.5s-2.58.43-2.58-.5,1.16-1.69,2.58-1.69S241.28,179.38,241.28,180.32Z"/><rect class="cls-8" x="236.97" y="146.96" width="5.77" height="23.1"/><g class="cls-9"><rect class="cls-8" x="236.97" y="146.96" width="5.77" height="23.1"/></g><path class="cls-10" d="M226,102.58h27.63a2.41,2.41,0,0,1,2.41,2.41v45.7a1.41,1.41,0,0,1-1.41,1.41H226a2.41,2.41,0,0,1-2.41-2.41V105A2.41,2.41,0,0,1,226,102.58Z"/><path class="cls-11" d="M254.27,103.73a4.9,4.9,0,0,1,.36,1.84v41.7a2.89,2.89,0,0,1-2.89,2.89H227.13A5,5,0,0,1,224,149a4.94,4.94,0,0,0,4.58,3.1h24.62a2.9,2.9,0,0,0,2.89-2.89v-41.7A4.9,4.9,0,0,0,254.27,103.73Z"/><path class="cls-12" d="M225.77,149.75V110.1a4.94,4.94,0,0,1,4.94-4.94h22.56a4.94,4.94,0,0,1,2.5.7,4.93,4.93,0,0,0-4.63-3.28H228.57a4.94,4.94,0,0,0-4.94,4.94v39.65a4.93,4.93,0,0,0,2.44,4.24A5.09,5.09,0,0,1,225.77,149.75Z"/><path class="cls-13" d="M251.78,152.68H229.07a6,6,0,0,1-6-6V108a6,6,0,0,1,6-6h21.56a6,6,0,0,1,6,6v39.78A4.87,4.87,0,0,1,251.78,152.68Zm-22.71-49.52a4.87,4.87,0,0,0-4.86,4.87v38.63a4.87,4.87,0,0,0,4.86,4.87h22.71a3.73,3.73,0,0,0,3.72-3.72V108a4.87,4.87,0,0,0-4.87-4.87Z"/><rect class="cls-7" x="238.41" y="160.82" width="2.89" height="6.83"/><g class="cls-14"><path class="cls-8" d="M245.59,140.71a4.86,4.86,0,1,1-4.85-4.85A4.86,4.86,0,0,1,245.59,140.71Z"/></g><g class="cls-14"><path class="cls-8" d="M249.29,143h0a2.25,2.25,0,0,1-2.25-2.25h0a2.24,2.24,0,0,1,2.25-2.24h0a2.24,2.24,0,0,1,2.25,2.24h0A2.25,2.25,0,0,1,249.29,143Z"/></g><g class="cls-14"><path class="cls-8" d="M232.18,143h0a2.25,2.25,0,0,0,2.25-2.25h0a2.24,2.24,0,0,0-2.25-2.24h0a2.24,2.24,0,0,0-2.25,2.24h0A2.25,2.25,0,0,0,232.18,143Z"/></g><path class="cls-15" d="M245.27,140.07a4.86,4.86,0,1,1-4.86-4.85A4.87,4.87,0,0,1,245.27,140.07Z"/><g class="cls-16"><path class="cls-15" d="M244,140.07a3.58,3.58,0,1,1-3.58-3.57A3.58,3.58,0,0,1,244,140.07Z"/></g><g class="cls-14"><rect class="cls-8" x="228" y="107.25" width="23.7" height="23.7" rx="2.51"/></g><rect class="cls-17" x="228.35" y="107.25" width="23" height="23" rx="2.51"/><path class="cls-13" d="M235.23,118.33a6.43,6.43,0,0,0-1,.14,6.71,6.71,0,0,0-.8.22.71.71,0,0,1-.2,0,.56.56,0,0,1-.54-.57.55.55,0,0,1,.36-.5,8.75,8.75,0,0,1,.91-.28,6.39,6.39,0,0,1,1.14-.16,3.1,3.1,0,0,1,.43,0,5.07,5.07,0,0,1,1.33.18,3.74,3.74,0,0,1,1.56.91,5.37,5.37,0,0,1,.49.58,3.64,3.64,0,0,1,.32.62,3.75,3.75,0,0,1,.22.67,2.61,2.61,0,0,1,.08.69v.2a3.47,3.47,0,0,1-.17.85,4.78,4.78,0,0,1-.36.8,3.61,3.61,0,0,1-.53.69,3.35,3.35,0,0,1-.67.52,3.66,3.66,0,0,1-2,.57,4.44,4.44,0,0,1-1.18-.15,5,5,0,0,1-1-.38,4,4,0,0,1-.88-.6.58.58,0,0,1-.19-.4.6.6,0,0,1,.15-.36.57.57,0,0,1,.4-.18.56.56,0,0,1,.36.14,2.9,2.9,0,0,0,.65.47h0a3.63,3.63,0,0,0,.76.29,4.1,4.1,0,0,0,.91.14,3,3,0,0,0,2-.85,2.29,2.29,0,0,0,.38-.49,2.37,2.37,0,0,0,.26-.56,3.87,3.87,0,0,0,.11-.64v0a2,2,0,0,0-.06-.49,2.89,2.89,0,0,0-.14-.47,1.86,1.86,0,0,0-.22-.42,2.06,2.06,0,0,0-.33-.4,2.9,2.9,0,0,0-1.12-.64,3.9,3.9,0,0,0-1-.12Zm-2.51-5.52a.53.53,0,0,1,.55-.54.53.53,0,0,1,.54.54v3.81a.53.53,0,0,1-.54.55.54.54,0,0,1-.55-.55Zm5.54-.54a.53.53,0,0,1,.54.54.54.54,0,0,1-.54.55h-3.43a.54.54,0,0,1-.55-.55.53.53,0,0,1,.55-.54Z"/><path class="cls-13" d="M241.33,123.63a.82.82,0,1,1-.82-.81A.82.82,0,0,1,241.33,123.63Z"/><path class="cls-13" d="M244.69,118.33a6.43,6.43,0,0,0-1,.14,6.23,6.23,0,0,0-.8.22.79.79,0,0,1-.2,0,.57.57,0,0,1-.55-.57.57.57,0,0,1,.37-.5,9.37,9.37,0,0,1,.9-.28,6.62,6.62,0,0,1,1.15-.16,3.1,3.1,0,0,1,.43,0,5.07,5.07,0,0,1,1.33.18,3.74,3.74,0,0,1,1.56.91,5.37,5.37,0,0,1,.49.58,4.54,4.54,0,0,1,.32.62,3.75,3.75,0,0,1,.22.67,2.61,2.61,0,0,1,.07.69v.2a3,3,0,0,1-.16.85,4.78,4.78,0,0,1-.36.8,3.61,3.61,0,0,1-.53.69,3.35,3.35,0,0,1-.67.52,3.66,3.66,0,0,1-2,.57,4.44,4.44,0,0,1-1.18-.15,4.83,4.83,0,0,1-1-.38,4.35,4.35,0,0,1-.89-.6.57.57,0,0,1-.18-.4.6.6,0,0,1,.15-.36.57.57,0,0,1,.4-.18.58.58,0,0,1,.36.14,2.9,2.9,0,0,0,.65.47h0a3.63,3.63,0,0,0,.76.29,4,4,0,0,0,.91.14,3,3,0,0,0,2-.85,2.29,2.29,0,0,0,.38-.49,2.37,2.37,0,0,0,.26-.56,3.06,3.06,0,0,0,.1-.64v0a2,2,0,0,0,0-.49,2.88,2.88,0,0,0-.15-.47,1.5,1.5,0,0,0-.21-.42,2.06,2.06,0,0,0-.33-.4,3,3,0,0,0-1.12-.64,3.9,3.9,0,0,0-1-.12Zm-2.51-5.52a.55.55,0,0,1,1.09,0v3.81a.55.55,0,1,1-1.09,0Zm5.53-.54a.53.53,0,0,1,.55.54.54.54,0,0,1-.55.55h-3.42a.54.54,0,0,1-.55-.55.53.53,0,0,1,.55-.54Z"/><path class="cls-7" d="M249,142.32h0a2.25,2.25,0,0,1-2.25-2.25h0a2.25,2.25,0,0,1,2.25-2.25h0a2.25,2.25,0,0,1,2.25,2.25h0A2.25,2.25,0,0,1,249,142.32Z"/><path class="cls-7" d="M231.86,142.32h0a2.25,2.25,0,0,0,2.25-2.25h0a2.25,2.25,0,0,0-2.25-2.25h0a2.25,2.25,0,0,0-2.25,2.25h0A2.25,2.25,0,0,0,231.86,142.32Z"/><g class="cls-18"><path class="cls-7" d="M249,141.29h0a1.21,1.21,0,0,1-1.21-1.22h0a1.21,1.21,0,0,1,1.21-1.21h0a1.22,1.22,0,0,1,1.22,1.21h0A1.22,1.22,0,0,1,249,141.29Z"/></g><g class="cls-18"><path class="cls-7" d="M231.86,141.29h0a1.21,1.21,0,0,0,1.21-1.22h0a1.21,1.21,0,0,0-1.21-1.21h0a1.22,1.22,0,0,0-1.22,1.21h0A1.22,1.22,0,0,0,231.86,141.29Z"/></g><path class="cls-19" d="M127,252.15c-2.58,11.29,17.62,27.81,19,29.37,28.57,18.54,32.91,10.26,33.21,8.91,2.8-8.54-11.64-23.7-23.56-29.33l-7.87-9.89S128.74,243,127,252.15Z"/><path class="cls-20" d="M168.9,283.6c3.86-2.68,6.5-4.34,6.72-4.47l3.31.49L178,283c-1.79,1.12-4,2.59-6.48,4.3l-2.87-.89Z"/><path class="cls-21" d="M195.24,226.07h0a1.34,1.34,0,0,1,1.33.14l10.89,6.28c12.88,7.44,23,19.93,23,28.43a6.35,6.35,0,0,1-2.84,5.77h0l-48.43,27.94.79-5.76-.79-6.24-7.93-10.54L147.48,255.7l-.9-1.54Z"/><path class="cls-19" d="M195.24,226.07h0a1.34,1.34,0,0,1,1.33.14l10.89,6.28c.49.29,1,.57,1.44.87l-51.07,29.49-10.37-7.14-.9-1.54Z"/><path class="cls-21" d="M177,218.63h0c4.11-2.42,11.54-1.48,19.63,3.19l8.72,5a4.22,4.22,0,0,1,1.89,3.29,1.34,1.34,0,0,1-.53,1.21l-48.67,28.1-3.78-4.92-20.49-7-5.31-.9Z"/><path class="cls-22" d="M148.07,284.7l10.75,6.21c12.88,7.44,23,6.6,23-1.9s-10.09-21-23-28.43l-10.9-6.28c-1-.61-1.89-.12-1.89,1.09a4.19,4.19,0,0,0,1.89,3.29l10.9,6.28c11.3,6.53,19.18,16.76,19.18,21.86s-7.88,6.23-19.18-.3l-10.75-6.2c-10.95-6.32-19.19-14.69-19.19-25.11,0-5.57,8.38-7.2,19.19-1l8.71,5c1,.61,1.89.11,1.89-1.09a4.19,4.19,0,0,0-1.89-3.29l-8.71-5c-12.25-7.07-23-5.6-23,3.15C125.09,267.55,135.33,277.35,148.07,284.7Z"/><path class="cls-20" d="M171.54,287.27c-13.66,9.5-34.81,26.86-32.67,37.82,1,5,7.21,8.59,18.5,10.55,18.84,3.28,25.91-13.63,33.39-31.52,5.31-12.69,10.8-25.81,21-31l2,4c-8.72,4.4-13.65,16.19-18.86,28.67-6.85,16.36-14.52,34.73-33,34.73a31.38,31.38,0,0,1-5.39-.49C143.26,337.8,135.8,333,134.42,326c-1.57-8,5-18.44,19.57-30.89,5.39-4.61,10.84-8.62,14.91-11.47Z"/><path class="cls-23" d="M322.24,246.51l-118,30.8.91,10.77h0c0,2.74,1.8,5.48,5.4,7.56l37.3,21.53c7.2,4.16,19,4.16,26.18,0L315.93,293c3.6-2.08,5.4-4.82,5.4-7.56Z"/><path class="cls-17" d="M271.32,305.36c-5.71,6.05-16.26,7.59-23.46,3.44l-37.3-21.53c-7.2-4.16-8.42-12.51-2.72-18.56l47.34-50.22c5.7-6.05,16.26-7.59,23.45-3.44l37.3,21.53c7.2,4.16,8.42,12.51,2.72,18.56Z"/><path class="cls-10" d="M277.55,286.78a13.61,13.61,0,0,1-15.87,2.33l-32.1-18.53c-4.87-2.81-5.7-8.47-1.84-12.56l32-34a13.6,13.6,0,0,1,15.88-2.33l32.09,18.53c4.87,2.81,5.7,8.46,1.84,12.55Z"/><polygon class="cls-24" points="270.78 285.36 305.49 248.54 272.82 229.69 238.12 266.5 270.78 285.36"/><polygon class="cls-25" points="237.21 282.16 237.21 279.71 232.83 284.36 232.83 286.81 237.21 282.16"/><polygon class="cls-26" points="232.83 284.36 220.81 277.42 220.81 279.87 232.83 286.81 232.83 284.36"/><polygon class="cls-27" points="237.21 279.71 225.2 272.77 220.81 277.42 232.83 284.36 237.21 279.71"/><polygon class="cls-28" points="257.29 293.76 257.29 291.3 252.91 295.95 252.91 298.4 257.29 293.76"/><polygon class="cls-23" points="252.91 295.95 240.9 289.01 240.9 291.47 252.91 298.4 252.91 295.95"/><polygon class="cls-29" points="257.29 291.3 245.28 284.36 240.9 289.01 252.91 295.95 257.29 291.3"/><polygon class="cls-20" points="286.16 248.5 289.78 244.67 288.73 244.06 285.11 247.89 286.16 248.5"/><polygon class="cls-20" points="284.33 241.52 289.78 244.67 290.72 243.67 285.27 240.52 284.33 241.52"/><polygon class="cls-20" points="279.77 246.35 285.22 249.5 286.16 248.5 280.71 245.35 279.77 246.35"/><polygon class="cls-20" points="271.84 249.23 281.91 238.58 280.85 237.97 270.79 248.62 271.84 249.23"/><polygon class="cls-20" points="281.6 253.32 285.22 249.5 284.17 248.89 280.55 252.72 281.6 253.32"/><polygon class="cls-20" points="275.21 251.18 280.66 254.32 281.6 253.32 276.15 250.18 275.21 251.18"/><polygon class="cls-20" points="294.86 253.52 298.48 249.69 297.43 249.09 293.81 252.91 294.86 253.52"/><polygon class="cls-20" points="293.03 246.55 298.48 249.69 299.42 248.69 293.97 245.54 293.03 246.55"/><polygon class="cls-20" points="288.47 251.37 293.92 254.52 294.86 253.52 289.41 250.37 288.47 251.37"/><polygon class="cls-20" points="290.3 258.35 293.92 254.52 292.87 253.91 289.25 257.74 290.3 258.35"/><polygon class="cls-20" points="283.91 256.2 289.36 259.35 290.3 258.35 284.85 255.2 283.91 256.2"/><polygon class="cls-20" points="273.49 261.94 277.11 258.12 276.06 257.51 272.44 261.34 273.49 261.94"/><polygon class="cls-20" points="271.65 254.97 277.11 258.12 278.05 257.12 272.6 253.97 271.65 254.97"/><polygon class="cls-20" points="267.09 259.8 272.55 262.94 273.49 261.94 268.04 258.8 267.09 259.8"/><polygon class="cls-20" points="268.93 266.77 272.55 262.94 271.5 262.34 267.88 266.17 268.93 266.77"/><polygon class="cls-20" points="269.09 259.4 272.71 255.58 271.65 254.97 268.04 258.8 269.09 259.4"/><polygon class="cls-20" points="264.53 264.23 268.14 260.4 267.09 259.8 263.48 263.62 264.53 264.23"/><polygon class="cls-20" points="262.54 264.63 267.98 267.77 268.93 266.77 263.48 263.63 262.54 264.63"/><polygon class="cls-20" points="276.68 272.79 285.81 263.14 284.75 262.53 275.63 272.18 276.68 272.79"/><polygon class="cls-20" points="280.35 259.99 285.81 263.14 286.75 262.14 281.3 258.99 280.35 259.99"/><polygon class="cls-20" points="266.19 271.35 269.15 273.06 269.67 272.52 266.7 270.81 266.19 271.35"/><polygon class="cls-20" points="263.71 273.97 266.68 275.68 267.19 275.14 264.23 273.43 263.71 273.97"/><polygon class="cls-20" points="264.71 277.76 266.68 275.68 266.11 275.36 264.14 277.44 264.71 277.76"/><polygon class="cls-20" points="264.8 273.76 266.76 271.68 266.19 271.35 264.23 273.43 264.8 273.76"/><polygon class="cls-20" points="262.32 276.38 264.29 274.31 263.71 273.97 261.75 276.06 262.32 276.38"/><polygon class="cls-20" points="261.24 276.6 264.2 278.31 264.71 277.76 261.75 276.06 261.24 276.6"/><polygon class="cls-20" points="268.94 281.05 273.88 275.79 273.31 275.46 268.37 280.72 268.94 281.05"/><polygon class="cls-20" points="270.92 274.08 273.88 275.79 274.39 275.25 271.43 273.54 270.92 274.08"/><polygon class="cls-17" points="265.39 235.61 259.38 232.13 257.48 234.13 263.49 237.6 265.39 235.61"/><polygon class="cls-17" points="252.95 248.87 246.94 245.39 245.03 247.39 251.05 250.86 252.95 248.87"/><polygon class="cls-17" points="243.79 258.55 235.2 253.58 233.3 255.58 241.89 260.54 243.79 258.55"/></g></g></svg>